<!-- Generated by IcoMoon.io -->
<svg version="1.1" xmlns="http://www.w3.org/2000/svg" width="28" height="32" viewBox="0 0 28 32">
<title>user-regular</title>
<path d="M17 19h-6c-6.075 0-11 4.925-11 11 0 1.104 0.896 2 2 2h24c1.104 0 2-0.896 2-2 0-6.075-4.925-11-11-11zM3.062 29c0.494-3.944 3.863-7 7.938-7h6c4.072 0 7.444 3.059 7.938 7h-21.876zM14 16c4.418 0 8-3.582 8-8s-3.582-8-8-8-8 3.582-8 8c0 4.419 3.581 8 8 8zM14 3c2.757 0 5 2.243 5 5s-2.243 5-5 5-5-2.244-5-5c0-2.757 2.244-5 5-5z"></path>
</svg>
